<svg width="31" height="23" viewBox="0 0 31 23" fill="none" xmlns="http://www.w3.org/2000/svg">
<path fill-rule="evenodd" clip-rule="evenodd" d="M0 1.87432C0 0.862488 0.820251 0.0422363 1.83208 0.0422363H17.5938C18.6056 0.0422363 19.4259 0.862488 19.4259 1.87432C19.4259 2.88615 18.6056 3.7064 17.5938 3.7064H1.83208C0.820251 3.7064 0 2.88615 0 1.87432ZM0 21.1257C0 20.1139 0.820251 19.2936 1.83208 19.2936H17.5938C18.6056 19.2936 19.4259 20.1139 19.4259 21.1257C19.4259 22.1376 18.6056 22.9578 17.5938 22.9578H1.83208C0.820251 22.9578 0 22.1376 0 21.1257ZM1.83208 9.69703C0.820251 9.69703 0 10.5173 0 11.5291C0 12.5409 0.82025 13.3612 1.83208 13.3612H29.1679C30.1797 13.3612 31 12.5409 31 11.5291C31 10.5173 30.1798 9.69703 29.1679 9.69703H1.83208Z" fill="white"/>
</svg>
